# xmcd CD database file
#
# Track frame offsets:
#	150
#	20760
#	43545
#	69015
#	94137
#
# Disc length: 1548 seconds
#
# Revision: 2
# Processed by: cddbd v1.4b41PL1 Copyright (c) Steve Scherf et al.
# Submitted via: Feurio! 1.50.2ß - http://www.feurio.com
#
DISCID=36060a05
DTITLE=883 - Gli Anni
DYEAR=1900
DGENRE=
TTITLE0=Gli Anni - Versione '96
TTITLE1=Gli Anni - Bliss Team Remix
TTITLE2=Gli Anni - Bliss Team Remix
TTITLE3=Gli Anni - Giorgino Remix
TTITLE4=Gli Anni - Album Version
EXTD=
EXTT0=
EXTT1=
EXTT2=
EXTT3=
EXTT4=
PLAYORDER=
